<svg width="37" height="37" viewBox="0 0 37 37" fill="none" xmlns="http://www.w3.org/2000/svg">
<path d="M14.4686 31.5017C14.4675 30.4431 14.8239 29.4137 15.4826 28.573C16.1413 27.7323 17.0655 27.1274 18.112 26.8518C19.1585 26.5763 20.2688 26.6456 21.2708 27.0491C22.2729 27.4525 23.1107 28.1675 23.6545 29.0832C27.399 27.4697 28.8019 24.9375 28.8019 20.125V14.875C28.8019 7.889 24.7689 3.0625 18.4998 3.0625C12.2308 3.0625 8.19775 7.89075 8.19775 14.875V21C8.19728 21.348 8.05555 21.6815 7.80365 21.9276C7.55176 22.1736 7.21024 22.312 6.854 22.3125H5.06234C3.75634 22.3111 2.50421 21.8039 1.58057 20.902C0.656919 20.0002 0.137151 18.7774 0.135254 17.5017L0.135254 15.7517C0.136676 14.4757 0.656177 13.2522 1.57983 12.3497C2.50347 11.4472 3.75587 10.9394 5.06234 10.9375H5.91875C7.27505 4.68825 11.9173 0.4375 18.4998 0.4375C25.0824 0.4375 29.7228 4.68825 31.0791 10.9375H31.9355C33.2417 10.9394 34.4938 11.447 35.4174 12.3491C36.341 13.2512 36.8607 14.4742 36.8626 15.75V17.5C36.8612 18.7759 36.3416 19.9992 35.4179 20.9014C34.4942 21.8036 33.2419 22.3111 31.9355 22.3125H31.3819C31.3128 24.3852 30.6008 26.3885 29.3402 28.0573C28.0797 29.726 26.33 30.9815 24.3228 31.6575C24.3016 32.9339 23.7622 34.1497 22.8233 35.0376C21.8843 35.9256 20.6227 36.4128 19.3159 36.3921C18.0092 36.3715 16.7644 35.8446 15.8553 34.9275C14.9463 34.0104 14.4474 32.7781 14.4686 31.5017ZM17.1561 31.5017C17.1561 31.9344 17.2874 32.3573 17.5335 32.7171C17.7796 33.0768 18.1294 33.3572 18.5386 33.5227C18.9478 33.6883 19.3982 33.7316 19.8326 33.6472C20.267 33.5628 20.6661 33.3545 20.9793 33.0485C21.2925 32.7426 21.5058 32.3528 21.5922 31.9285C21.6786 31.5042 21.6343 31.0643 21.4648 30.6646C21.2953 30.2649 21.0082 29.9233 20.6399 29.6829C20.2716 29.4425 19.8386 29.3142 19.3957 29.3142C18.8018 29.3147 18.2325 29.5453 17.8126 29.9555C17.3927 30.3656 17.1566 30.9217 17.1561 31.5017ZM31.4894 19.6892H31.9355C32.5297 19.6892 33.0995 19.4588 33.5198 19.0487C33.9401 18.6385 34.1764 18.0821 34.1769 17.5017V15.7517C34.1769 15.1714 33.941 14.6148 33.5211 14.2043C33.1011 13.7938 32.5315 13.563 31.9373 13.5625H31.4894V19.6892ZM2.82275 15.7517V17.5017C2.8237 18.0815 3.06002 18.6371 3.47987 19.0469C3.89972 19.4567 4.46882 19.687 5.06234 19.6875H5.51025V13.5625H5.06234C4.4682 13.563 3.89856 13.7938 3.4786 14.2043C3.05865 14.6148 2.82275 15.1714 2.82275 15.7517Z" fill="#4FD5AB"/>
</svg>
