<svg width="32" height="39" viewBox="0 0 32 39" fill="none" xmlns="http://www.w3.org/2000/svg">
<path d="M11.2941 0.5C10.1647 0.5 9.41177 1.26 9.41177 2.4V36.6C9.41177 37.74 10.1647 38.5 11.2941 38.5C12.4235 38.5 13.1765 37.74 13.1765 36.6V2.4C13.1765 1.26 12.4235 0.5 11.2941 0.5ZM1.88235 19.5C0.752941 19.5 0 20.26 0 21.4V36.6C0 37.74 0.752941 38.5 1.88235 38.5C3.01177 38.5 3.76471 37.74 3.76471 36.6V21.4C3.76471 20.26 3.01177 19.5 1.88235 19.5ZM20.7059 11.9C19.5765 11.9 18.8235 12.66 18.8235 13.8V36.6C18.8235 37.74 19.5765 38.5 20.7059 38.5C21.8353 38.5 22.5882 37.74 22.5882 36.6V13.8C22.5882 12.66 21.8353 11.9 20.7059 11.9ZM30.1176 27.1C28.9882 27.1 28.2353 27.86 28.2353 29V36.6C28.2353 37.74 28.9882 38.5 30.1176 38.5C31.2471 38.5 32 37.74 32 36.6V29C32 27.86 31.2471 27.1 30.1176 27.1Z" fill="#F8A04F"/>
</svg>
