<svg width="122" height="88" viewBox="0 0 122 88" fill="none" xmlns="http://www.w3.org/2000/svg">
<path opacity="0.3" d="M90.2743 36.7744H29.042V67.4592H90.2743V36.7744Z" fill="#1B8CFF"/>
<path opacity="0.5" d="M29.2324 41.0947H90.4647" stroke="white" stroke-width="3" stroke-miterlimit="10"/>
<path opacity="0.5" d="M29.042 63.457H90.2743" stroke="white" stroke-width="3" stroke-miterlimit="10"/>
<path d="M96.9304 67.459H22.3867V82.1343H96.9304V67.459Z" stroke="#1B8CFF" stroke-width="3" stroke-miterlimit="10"/>
<path d="M90.2743 36.7744H29.042V67.4592H90.2743V36.7744Z" stroke="#1B8CFF" stroke-width="3" stroke-miterlimit="10"/>
<path d="M56.9962 15.4282L47.6782 36.7742" stroke="#1B8CFF" stroke-width="3" stroke-miterlimit="10"/>
<path d="M71.6383 36.7742L62.3203 15.4282" stroke="#1B8CFF" stroke-width="3" stroke-miterlimit="10"/>
<path d="M26.3799 15.4282L29.0422 36.7742" stroke="#1B8CFF" stroke-width="3" stroke-miterlimit="10"/>
<path d="M47.6783 36.7743L30.3735 14.0942" stroke="#1B8CFF" stroke-width="3" stroke-miterlimit="10"/>
<path d="M26.3798 15.4286C30.0556 15.4286 33.0355 12.4421 33.0355 8.75802C33.0355 5.07394 30.0556 2.0874 26.3798 2.0874C22.704 2.0874 19.7241 5.07394 19.7241 8.75802C19.7241 12.4421 22.704 15.4286 26.3798 15.4286Z" stroke="#1B8CFF" stroke-width="3" stroke-miterlimit="10"/>
<path d="M59.6581 15.4286C63.334 15.4286 66.3138 12.4421 66.3138 8.75802C66.3138 5.07394 63.334 2.0874 59.6581 2.0874C55.9823 2.0874 53.0024 5.07394 53.0024 8.75802C53.0024 12.4421 55.9823 15.4286 59.6581 15.4286Z" stroke="#1B8CFF" stroke-width="3" stroke-miterlimit="10"/>
<path d="M92.9372 15.4282L90.2749 36.7742" stroke="#1B8CFF" stroke-width="3" stroke-miterlimit="10"/>
<path d="M71.6387 36.7743L88.9434 14.0942" stroke="#1B8CFF" stroke-width="3" stroke-miterlimit="10"/>
<path d="M92.9369 15.4286C96.6128 15.4286 99.5926 12.4421 99.5926 8.75802C99.5926 5.07394 96.6128 2.0874 92.9369 2.0874C89.2611 2.0874 86.2812 5.07394 86.2812 8.75802C86.2812 12.4421 89.2611 15.4286 92.9369 15.4286Z" stroke="#1B8CFF" stroke-width="3" stroke-miterlimit="10"/>
<path d="M29.042 43.4453H90.2743" stroke="#1B8CFF" stroke-width="3" stroke-miterlimit="10"/>
<path d="M29.042 60.7886H90.2743" stroke="#1B8CFF" stroke-width="3" stroke-miterlimit="10"/>
<path d="M45.0158 55.4524H46.3469L49.0092 52.7841V51.45L46.3469 48.7817H45.0158L42.3535 51.45V52.7841" fill="#1B8CFF"/>
<path d="M54.3337 55.4524H55.6648L58.3271 52.7841V51.45L55.6648 48.7817H54.3337L51.6714 51.45V52.7841" fill="#1B8CFF"/>
<path d="M63.652 55.4524H64.9832L67.6454 52.7841V51.45L64.9832 48.7817H63.652L60.9897 51.45V52.7841" fill="#1B8CFF"/>
<path d="M72.9694 55.4524H74.3005L76.9628 52.7841V51.45L74.3005 48.7817H72.9694L70.3071 51.45V52.7841" fill="#1B8CFF"/>
<path d="M22.3867 74.1299H37.0292" stroke="#1B8CFF" stroke-width="3" stroke-linecap="round" stroke-linejoin="round"/>
<path d="M82.2876 75.4639H96.9301" stroke="#1B8CFF" stroke-width="3" stroke-linecap="round" stroke-linejoin="round"/>
<path d="M1.84863 84.2944H120.003" stroke="#DBECFD" stroke-width="3" stroke-linecap="round"/>
</svg>
