<svg width="93" height="76" viewBox="0 0 93 76" fill="none" xmlns="http://www.w3.org/2000/svg">
<path d="M77.5955 53.7354V2.75785V1H17.3481L8.60254 8.91031V61.6457L17.3481 53.7354H77.5955Z" fill="#D9EAFB"/>
<path d="M12.9754 4.51564L8.1167 11.9865V62.0851L16.3764 54.6143V52.8564V3.63672L12.9754 4.51564Z" fill="#B4D6F8"/>
<path d="M77.1096 53.7354V71.7534H22.1167C14.3847 71.7534 8.1167 65.4853 8.1167 57.7534V15.8789C8.1167 8.14692 14.3847 1.87891 22.1167 1.87891H77.1096V53.7354ZM77.1096 53.7354H20.1179C14.1903 53.7354 9.53793 58.8175 10.0602 64.722V64.722" stroke="#1B8CFF" stroke-width="3" stroke-linecap="square"/>
<path d="M53.3022 20.7759H75.6521V30.444H53.3022V20.7759Z" fill="#1B8CFF" stroke="#1B8CFF" stroke-width="3" stroke-linecap="square"/>
<path d="M25.6079 9.78906H66.9065M25.6079 16.8205H44.0708" stroke="#B4D6F8" stroke-width="3" stroke-linecap="square"/>
<path d="M16.8623 55.0538V28.2466" stroke="#1B8CFF" stroke-width="3"/>
<path d="M17.3481 3.19727V18.139" stroke="#1B8CFF" stroke-width="3"/>
<path d="M2.28613 74.3901C2.28613 74.3901 69.3356 74.3901 91.1996 74.3901" stroke="#DBECFD" stroke-width="3" stroke-linecap="round"/>
</svg>
