<svg width="139" height="89" viewBox="0 0 139 89" fill="none" xmlns="http://www.w3.org/2000/svg">
<path d="M113.716 84H31.3281C24.7007 84 19.3281 78.6274 19.3281 72V68.5C19.3281 61.8726 24.7007 56.5 31.3281 56.5H113.716" stroke="#1B8CFF" stroke-width="3" stroke-linecap="round"/>
<path d="M102.552 57V70.5M102.552 84V70.5M102.552 70.5H43.1792" stroke="#1B8CFF" stroke-width="3" stroke-linecap="round"/>
<path d="M101.03 81H31.8804C26.9098 81 22.8804 76.9706 22.8804 72V68.5" stroke="#B4D6F8"/>
<path d="M39.1196 28.5V55.5H93.9256V28.5L86.4469 27.1354C73.2728 24.7317 59.7724 24.7317 46.5983 27.1354L39.1196 28.5Z" fill="#B4D6F8" stroke="#1B8CFF" stroke-width="3"/>
<path d="M39.1194 42.5L20.3433 22L66.0149 2L112.194 22M112.194 22L93.9254 39.5M112.194 22V36.5" stroke="#1B8CFF" stroke-width="3"/>
<path d="M116.784 41.5C116.784 43.9644 114.75 46 112.194 46C109.638 46 107.604 43.9644 107.604 41.5C107.604 39.0356 109.638 37 112.194 37C114.75 37 116.784 39.0356 116.784 41.5Z" fill="#1B8CFF" stroke="#1B8CFF" stroke-width="3"/>
<path d="M41.1494 53.5V30.2993L45.7166 29.4997L50.7912 28.7461V53.5H41.1494Z" fill="#D9EAFB"/>
<path d="M2.07471 87H137.06" stroke="#D9EAFB" stroke-width="3" stroke-linecap="round"/>
</svg>
