<svg width="105" height="88" viewBox="0 0 105 88" fill="none" xmlns="http://www.w3.org/2000/svg">
<path d="M2.5 66V6C2.5 3.23858 4.73857 1 7.5 1H98.5C101.261 1 103.5 3.23858 103.5 6V66H2.5Z" fill="#D9EAFB"/>
<path d="M2 76V2H103.5V76H2Z" stroke="#1B8CFF" stroke-width="3"/>
<path d="M37 83.5V76.5H68V83.5H37Z" stroke="#1B8CFF" stroke-width="3"/>
<path d="M2.5 66H102.5" stroke="#1B8CFF" stroke-width="3"/>
<path d="M76 36C76 31.6872 74.6721 27.4789 72.1968 23.9471C69.7214 20.4154 66.2187 17.7314 62.1646 16.26C58.1105 14.7886 53.7017 14.601 49.5374 15.7229C45.373 16.8448 41.655 19.2217 38.8887 22.5305C36.1225 25.8393 34.442 29.9196 34.0758 34.2169C33.7096 38.5142 34.6754 42.82 36.8419 46.5492C39.0085 50.2784 42.2706 53.25 46.1851 55.0604C50.0996 56.8707 54.4766 57.4319 58.7212 56.6677L56.9897 47.0511C54.7201 47.4598 52.3797 47.1597 50.2866 46.1917C48.1935 45.2237 46.4492 43.6347 45.2908 41.6407C44.1323 39.6467 43.6159 37.3443 43.8117 35.0466C44.0075 32.7488 44.9061 30.567 46.3852 28.7978C47.8644 27.0285 49.8524 25.7576 52.0791 25.1577C54.3058 24.5579 56.6632 24.6581 58.831 25.4449C60.9987 26.2317 62.8716 27.6668 64.1952 29.5553C65.5188 31.4437 66.2288 33.6939 66.2288 36H76Z" fill="#1B8CFF"/>
<circle cx="54.5" cy="36.5" r="4.5" fill="#1B8CFF"/>
<rect x="7.5" y="12" width="26" height="4" fill="#B4D6F8"/>
<rect x="7.5" y="18" width="20" height="4" fill="#B4D6F8"/>
<rect x="7.5" y="25" width="20" height="2" fill="#B4D6F8"/>
<rect x="72.5" y="42" width="26" height="4" fill="#B4D6F8"/>
<rect x="72.5" y="48" width="20" height="4" fill="#B4D6F8"/>
<rect x="72.5" y="55" width="20" height="2" fill="#B4D6F8"/>
<path d="M20 86H86.5" stroke="#D9EAFB" stroke-width="3" stroke-linecap="round"/>
<path d="M29 7H91.5" stroke="#1B8CFF" stroke-width="3" stroke-linecap="square"/>
<path d="M7.5 7H24.5" stroke="#1B8CFF" stroke-width="3" stroke-linecap="square"/>
</svg>
