<svg width="33" height="34" viewBox="0 0 33 34" fill="none" xmlns="http://www.w3.org/2000/svg">
<path d="M3.56805 7.79143C-0.835014 14.0359 -0.249954 22.7961 5.36492 28.4109C10.9798 34.0258 19.6508 34.5649 25.9399 30.2078C26.6586 29.6687 27.4679 29.0391 28.1407 28.4109C28.8149 27.7367 29.3985 26.9734 29.893 26.2101C34.296 19.9656 33.757 11.2055 28.1407 5.59062C22.5244 -0.0242586 13.8102 -0.56332 7.52117 3.79374C6.80242 4.3328 6.03911 4.96243 5.36492 5.59062C4.69073 6.2648 4.06255 7.02812 3.56805 7.79143ZM27.018 23.2891L10.3962 6.6673C15.068 3.83687 21.268 4.42049 25.2657 8.41962C29.3094 12.4633 29.8484 18.6618 27.018 23.2891ZM6.44305 10.711L23.0649 27.2868C18.393 30.1172 12.193 29.5336 8.19536 25.5345C4.15167 21.4908 3.61261 15.3369 6.44305 10.7096V10.711Z" fill="black"/>
</svg>
