<svg width="52" height="39" viewBox="0 0 52 39" fill="none" xmlns="http://www.w3.org/2000/svg">
<path d="M51.5298 13.7983L38.0968 0.466506C37.4701 -0.155502 36.4538 -0.155502 35.827 0.466506L29.3078 6.93645C28.6811 7.55846 28.6811 8.56702 29.3078 9.18902L30.5356 10.4075L27.1022 10.7061C26.7235 10.7391 26.3549 10.8164 25.9991 10.9342C25.6443 10.8167 25.2749 10.739 24.8978 10.7061L21.4643 10.4075L22.6921 9.18902C23.3188 8.56702 23.3188 7.55846 22.6921 6.93645L16.1729 0.466506C15.5462 -0.155502 14.5299 -0.155502 13.9031 0.466506L0.470057 13.7983C-0.156686 14.4202 -0.156686 15.4289 0.470057 16.0509L6.98926 22.5208C7.6157 23.1425 8.63234 23.1427 9.25898 22.5208L10.7111 21.0796L11.0113 24.4864C11.1097 25.6038 11.6043 26.6561 12.4035 27.4493L22.0697 37.0413C24.723 39.6745 27.5247 39.4287 29.3383 37.6291C30.1976 36.7762 39.5618 27.484 39.5973 27.4487C40.3962 26.6555 40.8904 25.6036 40.9888 24.4864L41.289 21.0795L42.7411 22.5207C43.3676 23.1424 44.3842 23.1426 45.0108 22.5207L51.53 16.0508C52.1567 15.4289 52.1567 14.4202 51.5298 13.7983ZM8.12412 19.1419L3.87464 14.9246L15.0382 3.84546L19.2876 8.06274C5.81316 21.4353 9.25471 18.0198 8.12412 19.1419ZM35.8704 26.637C35.8702 26.6372 35.87 26.6374 35.8698 26.6376C35.281 27.2226 34.3276 27.2228 33.7374 26.6371C33.7364 26.6361 33.7352 26.6352 33.7341 26.6342L31.1714 24.0907C30.5446 23.4687 29.5284 23.4688 28.9017 24.0907C28.275 24.7127 28.275 25.7213 28.9017 26.3433L31.4677 28.8899C31.4682 28.8904 31.4688 28.8908 31.4693 28.8913C32.057 29.4763 32.0585 30.4215 31.4672 31.0072C30.8784 31.5921 29.9247 31.5924 29.3345 31.0067C29.3337 31.006 29.3329 31.0054 29.3323 31.0047L26.7685 28.4603C26.1418 27.8383 25.1255 27.8383 24.4988 28.4603C23.872 29.0823 23.872 30.0908 24.4988 30.7128L27.0647 33.2594C27.065 33.2597 27.0653 33.26 27.0657 33.2604C27.6517 33.8432 27.6582 34.7886 27.0631 35.3778C26.7106 35.7287 26.2047 35.8817 25.7099 35.7876C25.1707 35.685 24.9797 35.4243 24.3391 34.7886L14.6728 25.1965C14.4064 24.9321 14.2415 24.5814 14.2087 24.2088L13.6739 18.1393C14.3446 17.4736 17.4307 14.4101 18.5016 13.3478L24.6174 13.8796C24.9924 13.9122 25.3455 14.0756 25.6116 14.3395C27.9605 16.6697 35.2654 23.9197 35.8697 24.5197C36.4581 25.1038 36.4583 26.0537 35.8704 26.637ZM37.9764 22.105C37.474 21.6063 31.9688 16.1425 29.5025 13.6954L33.498 13.3479C34.6393 14.4798 37.9882 17.8045 38.3258 18.1394L37.9764 22.105ZM43.8759 19.1419C42.3727 17.6501 33.0444 8.39234 32.7124 8.06284L36.9618 3.84557L48.1254 14.9245L43.8759 19.1419Z" fill="#59F1E9"/>
</svg>
