<svg width="10" height="10" viewBox="0 0 10 10" fill="none" xmlns="http://www.w3.org/2000/svg">
<path fill-rule="evenodd" clip-rule="evenodd" d="M7.51688 6.2L10 8.71875L8.75 10L6.20313 7.515C5.56076 7.91473 4.81908 8.12609 4.0625 8.125C1.81875 8.125 0 6.30187 0 4.0625C0 1.81875 1.82313 0 4.0625 0C6.30625 0 8.125 1.82313 8.125 4.0625C8.12613 4.81784 7.91545 5.55837 7.51688 6.2ZM1.24812 4.0325C1.24812 5.5825 2.50688 6.845 4.06063 6.845C5.61063 6.845 6.87312 5.58563 6.87312 4.0325C6.87312 2.4825 5.61375 1.22 4.06063 1.22C2.51063 1.22 1.24812 2.47875 1.24812 4.0325Z" fill="#1B8CFF"/>
</svg>
