<svg width="81" height="67" viewBox="0 0 81 67" fill="none" xmlns="http://www.w3.org/2000/svg">
<path opacity="0.3" d="M67.25 25.125H38.8125V52.3438H67.25V25.125Z" fill="#1B8CFF"/>
<path opacity="0.5" d="M60.6875 52.3438V48.1562C60.6875 47.3233 60.3418 46.5245 59.7264 45.9355C59.1111 45.3465 58.2765 45.0156 57.4062 45.0156H50.8438C49.9735 45.0156 49.1389 45.3465 48.5236 45.9355C47.9082 46.5245 47.5625 47.3233 47.5625 48.1562V52.3438" fill="white"/>
<path d="M54.125 45.0156C58.3534 45.0156 61.7812 41.7347 61.7812 37.6875C61.7812 33.6403 58.3534 30.3594 54.125 30.3594C49.8966 30.3594 46.4688 33.6403 46.4688 37.6875C46.4688 41.7347 49.8966 45.0156 54.125 45.0156Z" stroke="#41B2FF" stroke-width="3" stroke-miterlimit="10" stroke-linecap="round"/>
<path d="M54.125 40.8281C54.7052 40.8281 55.2616 40.6075 55.6718 40.2149C56.082 39.8222 56.3125 39.2897 56.3125 38.7344" stroke="#41B2FF" stroke-width="3" stroke-miterlimit="10" stroke-linecap="round"/>
<path d="M60.6875 52.3438V48.1562C60.6875 47.3233 60.3418 46.5245 59.7264 45.9355C59.1111 45.3465 58.2765 45.0156 57.4062 45.0156H50.8438C49.9735 45.0156 49.1389 45.3465 48.5236 45.9355C47.9082 46.5245 47.5625 47.3233 47.5625 48.1562V52.3438" stroke="#41B2FF" stroke-width="3" stroke-miterlimit="10" stroke-linecap="round"/>
<path d="M60.6875 34.5469H43.1875" stroke="#41B2FF" stroke-width="3" stroke-miterlimit="10" stroke-linecap="round"/>
<path d="M73.8125 18.8438H8.1875V61.7656H73.8125V18.8438Z" stroke="#1B8CFF" stroke-width="3" stroke-linejoin="round"/>
<path d="M33.3438 18.8438V5.23438H48.6562V18.8438" stroke="#1B8CFF" stroke-width="3" stroke-linecap="round" stroke-linejoin="round"/>
<path d="M33.3438 10.4688H48.6562" stroke="#1B8CFF" stroke-width="3" stroke-linejoin="round"/>
<path d="M33.3438 13.6094H48.6562" stroke="#1B8CFF" stroke-width="3" stroke-linejoin="round"/>
<path d="M67.25 25.125H38.8125V52.3438H67.25V25.125Z" stroke="#1B8CFF" stroke-width="3" stroke-miterlimit="10" stroke-linecap="square"/>
<path d="M67.25 56.5312H14.75" stroke="#1B8CFF" stroke-width="3" stroke-miterlimit="10" stroke-linecap="round"/>
<path d="M33.3438 34.5469H14.75" stroke="#1B8CFF" stroke-width="3" stroke-miterlimit="10" stroke-linecap="round"/>
<path d="M33.3438 38.7344H14.75" stroke="#1B8CFF" stroke-width="3" stroke-miterlimit="10" stroke-linecap="round"/>
<path d="M33.3438 42.9219H14.75" stroke="#1B8CFF" stroke-width="3" stroke-miterlimit="10" stroke-linecap="round"/>
<path d="M2 64.5H79" stroke="#D9EAFB" stroke-width="3" stroke-linecap="round"/>
</svg>
