<svg width="80" height="86" viewBox="0 0 80 86" fill="none" xmlns="http://www.w3.org/2000/svg">
<path d="M9.42071 36.1885H11.2276V47.0299H9.42071C6.42693 47.0299 4 44.603 4 41.6092C4 38.6154 6.42693 36.1885 9.42071 36.1885Z" fill="#1B8CFF" stroke="#1B8CFF" stroke-width="3" stroke-linecap="round"/>
<path fill-rule="evenodd" clip-rule="evenodd" d="M80 86H0C1.76842 66.7323 9.19098 57.0075 28.7968 60.4635C36.1826 61.7655 43.7795 61.7102 51.1045 60.1007C72.7886 55.336 78.6091 66.4206 80 86Z" fill="#D9EAFB"/>
<path d="M65.4887 47.0299V33.1306C65.4887 18.6991 53.7897 7 39.3581 7V7C24.9266 7 13.2275 18.6991 13.2275 33.1306L13.2275 52.8742C13.2275 54.9396 13.6161 56.9866 14.3729 58.9084L14.7364 59.8314C17.6105 67.1296 24.6561 71.9272 32.4999 71.9272V71.9272" stroke="#1B8CFF" stroke-width="3" stroke-linecap="round"/>
<path d="M41.3666 69H37.1968C35.4313 69 34 70.4313 34 72.1968C34 73.9624 35.4313 75.3937 37.1968 75.3937H41.3666C43.1322 75.3937 44.5634 73.9624 44.5634 72.1968C44.5634 70.4313 43.1322 69 41.3666 69Z" stroke="#1B8CFF" stroke-width="3" stroke-linecap="round"/>
<path d="M67.2956 36.1885H65.4887V47.0299H67.2956C70.2894 47.0299 72.7163 44.603 72.7163 41.6092C72.7163 38.6154 70.2894 36.1885 67.2956 36.1885Z" fill="#1B8CFF" stroke="#1B8CFF" stroke-width="3" stroke-linecap="round"/>
<circle cx="39.5" cy="36.5" r="21.5" fill="#D9EAFB"/>
</svg>
